<?xml version="1.0" encoding="UTF-8"?>
<!DOCTYPE svg  PUBLIC '-//W3C//DTD SVG 20010904//EN'  'http://www.w3.org/TR/2001/REC-SVG-20010904/DTD/svg10.dtd'>
<svg width="316px" height="279px" version="1.0" viewBox="0 0 3160 2790" xmlns="http://www.w3.org/2000/svg">
<g fill="#fff">
<path d="m45 2779c-38-106-58-427-36-592 63-471 344-901 750-1148 39-24 80-62 121-112 67-84 181-186 275-248 33-21 54-39 47-39-8 0-12-20-12-65v-65h185 185v-245-245h70 70v245 245h180 180v65 65h-180-180v85c0 80 1 85 23 89 12 2 69 12 127 21 120 19 262 62 366 110l72 33-28-62c-146-325-128-563 58-737 57-55 172-129 198-129 4 0-4 12-18 27-14 16-37 48-51 73-25 45-61 150-53 157 2 3 14-17 27-42 31-62 122-161 184-201 85-54 223-82 265-54 13 9 12 12-5 21-50 28-140 137-176 214-63 132-74 187-73 375 0 163 1 167 46 340 25 96 49 211 53 254l8 80 64 75c197 231 332 539 368 844 8 64-9 81-19 20-4-21-14-68-23-104-18-76-36-91-149-132l-69-25 27 107c25 99 36 182 22 168-4-4-20-56-35-117-40-155-47-166-111-178-29-6-73-13-98-16l-45-5-13 41c-19 61-87 192-140 271-103 154-266 287-434 353-156 62-385 88-559 65-95-13-223-53-309-96-143-72-295-206-382-336-29-43-58-79-64-79s-30 6-55 14c-24 7-72 22-106 31-35 10-63 21-63 24 0 22 31 320 35 338 3 12 1 24-4 28-6 3-13-11-17-32-3-21-13-69-20-108-8-38-17-102-21-142-6-72-6-73-32-66-42 10-243 92-286 117l-40 23 3 89c1 49 9 129 17 178 9 49 13 91 11 93-15 15-42-97-60-246l-11-95-37 38c-37 38-37 38-32 109 3 40 10 110 15 156 9 77 7 114-6 80zm1810-363c143-40 291-130 392-240 89-97 91-103 64-186l-22-70h-62c-66 0-395 25-477 36l-50 7-2 136c-1 75-1 153 0 174 3 47-14 41-24-8-6-33-8-34-58-37l-51-3-3-120-3-121-91 13c-98 15-339 60-344 66-5 5 36 241 43 248 33 33 218 103 323 123 57 10 306-2 365-18zm-1742-191c3-72 9-139 12-150 4-13-7-5-29 19-44 48-53 81-62 220l-7 110 40-34 40-34 6-131zm282-1l90-32 12-168c7-92 16-187 21-211 12-53 14-54-108 19-91 55-183 122-214 157-23 25-42 121-52 252l-7 96 84-40c46-22 125-55 174-73zm707-49c-9-55-17-102-18-104-4-4-105 19-123 29-10 5 8 30 69 94 46 47 84 85 85 84 1-2-5-48-13-103zm-363-62c2-1-10-35-28-74-31-69-81-252-81-296 0-27-2-28-40-8-23 12-29 23-34 62-13 98-25 250-26 314v66l103-30c56-17 104-32 106-34zm334-82c4-4 1-65-7-137-8-71-18-173-21-227l-7-99-26 6c-15 4-73 23-129 42l-101 36 4 37c15 109 53 226 106 322l31 56 71-15c39-7 74-17 79-21zm-893-162c20-63 54-150 74-194l36-80-47 50c-53 57-91 135-139 284-43 132-43 147 3 95 25-30 45-73 73-155zm1183 110l197-34v-105c-1-85-7-129-34-234-18-72-38-132-44-134-13-4-185 29-316 60l-89 22 7 120c3 67 11 172 18 234l11 114 26-4c14-3 115-20 224-39zm1017-9c11-21 20-42 20-45s-16-5-36-5c-30 0-35 3-29 18 3 9 9 29 12 45 3 15 7 27 9 27s13-18 24-40zm674-51c-15-49-37-96-52-113-35-37-175-142-223-167l-38-19 37 72c20 39 53 110 72 156l35 85 55 17c30 9 73 26 95 37 22 10 41 19 43 18 1-1-9-40-24-86zm-2734-70c41-28 104-67 140-87 36-19 66-36 68-37 1-1 13-47 27-101 25-104 61-208 96-276 11-22 19-41 17-43-5-6-146 92-223 155-61 50-77 71-123 158-29 55-71 151-92 212l-40 112 27-22c16-11 62-44 103-71zm1570 57c85-8 207-18 271-22l117-6-35-86c-40-99-67-154-131-269l-46-83h-167c-92 0-174 3-183 6-14 5-16 36-16 246 0 223 1 239 18 234 9-3 87-12 172-20zm926-43c-34-86-87-195-93-190-3 4-29 121-46 211-2 8 78 26 150 35 7 1 3-20-11-56zm-388-20c19-65 32-165 32-250v-81l-32-11c-50-15-175-39-251-47l-69-7 26 41c35 56 128 252 156 330l23 62h52c51 0 52 0 63-37zm536-145c-46-92-214-338-230-338-2 0-4 47-4 104v104l68 40c37 22 91 59 121 81 30 23 56 41 58 41s-4-15-13-32zm-2362-10c12-10 17-34 20-95 2-45 2-80 1-79-8 7-49 186-44 186 4 0 14-6 23-12zm319-123l116-38 6-171c4-94 11-188 16-208l9-37-52 20c-173 68-171 67-206 193-27 93-40 291-19 283 8-3 66-22 130-42zm639-50c0-44-3-55-16-55-12 0-15 6-10 26 4 15 10 39 13 55 8 44 13 35 13-26zm-1161-91c27-39 82-106 122-150l73-79-73 70c-68 65-147 157-216 250l-29 39 37-29c20-16 59-62 86-101zm986 25c47-7 87-15 89-18 8-13-79-268-120-354-17-35-20-37-53-31-40 8-190 50-196 56-9 8-25 208-25 306v109l110-27c60-15 148-34 195-41zm1045-97c-24-107-20-100-145-196-89-69-199-103-400-126-55-6-109-12-120-14-13-2 20 38 90 108 61 61 137 150 170 197l60 86 100 12c55 6 136 20 180 29 44 10 82 14 84 9s-7-52-19-105zm-886 72c14-5 16-33 16-207v-200l-87 7c-48 3-89 8-91 11-3 3 13 51 36 107 22 57 53 145 69 195 29 95 30 97 57 87zm496-23c0-3-31-46-69-96-69-90-241-265-261-265-6 0-10 63-10 183v182h170c93 0 170-2 170-4zm-1321-226l31-69-37 34c-104 96-129 120-185 182l-60 67 110-72c107-71 110-73 141-142zm309-89c42-14 52-22 52-40 0-13 13-48 28-79l28-55-26 10c-44 17-125 66-146 90-12 13-37 48-57 80l-36 56 52-22c29-13 76-31 105-40zm1305-20c-25-53-175-119-403-177-143-36-159-36-55 0 101 35 198 81 283 133 62 38 149 76 179 77 9 1 8-8-4-33zm-1085-45l73-16-38-55c-21-30-47-56-57-58-33-7-72 46-101 137-7 22-5 23 21 16 16-4 62-15 102-24zm767-32c-71-34-213-86-285-102-24-6-25-4-25 39 0 52-4 50 125 59 47 3 121 14 165 24 110 25 111 25 20-20zm-537-5c69-6 82-10 82-24 0-25-126-70-214-77l-68-6 36 53c20 29 36 57 36 62 0 6 10 8 23 4 12-3 59-9 105-12zm82-104c0-18-7-20-52-20l-53 1 38 14c21 7 41 16 44 19 12 12 23 5 23-14zm-203-55c63-8 134-15 159-15h44v-80c0-57-4-80-12-80-23 0-162 47-223 75-63 29-214 125-233 148-9 10 11 7 69-10 45-12 133-30 196-38z"/>
</g>
</svg>
